<svg data-name="Layer 1" 
    height="calc(100% + 44px)" 
    aria-hidden="true" 
    viewBox="-12 0 450 200" 
    xmlns="http://www.w3.org/2000/svg" 
    fill="#ff0000" 
    style="position: absolute; top: 50%; left: 50%; transform: translateX(-50%) translateY(-50%); --darkreader-inline-fill: #ff0000;" 
    data-darkreader-inline-fill="">
    <path d="M115.494 91.17c-15.867 63.601-18.477 74.09-18.164 75.3.209.537 4.385-2.018 9.395-5.783l9.082-6.723 6.472-26.22 6.577-26.085h6.055c6.054 0 6.159-.135 7.724-4.706.836-2.69 1.253-5.379.94-6.051-.418-.807-3.132-1.345-6.263-1.345h-5.533l2.714-10.757 2.714-10.757h6.16c5.95 0 6.054-.134 7.62-4.706.73-2.555 1.461-5.244 1.461-6.05 0-.807-5.115-1.345-14.093-1.345h-13.988Zm68.343-33.615c-2.401 8.606-3.654 13.85-3.654 15.329s1.879 1.882 7.725 1.882c7.307 0 7.725-.134 8.35-3.361.523-2.824 1.254-3.362 4.803-3.362h4.071l-1.879 6.992-1.879 7.127-11.9.672-11.9.672-3.863 14.791c-2.088 8.068-3.863 15.598-3.863 16.539-.104 1.345 4.176 1.614 19.521 1.345l19.521-.404 6.994-26.892c3.758-14.79 6.994-28.237 6.994-29.985l.105-2.958H203.67c-14.51 0-19.521.403-19.834 1.613m14.092 37.918c0 1.076-.417 3.497-1.044 5.379-.835 2.824-1.67 3.496-4.697 3.496-4.071 0-4.176-.403-2.506-6.589.94-3.63 1.67-4.168 4.698-4.168 2.4 0 3.55.672 3.55 1.882m33.87-37.918c-1.46 4.975-14.092 56.743-14.092 57.819 0 .538 3.445 1.076 7.725 1.076h7.725l7.098-14.791c3.967-8.068 7.308-14.388 7.516-14.119.21.27-1.043 6.185-2.818 13.312s-3.236 13.58-3.236 14.253c0 .807 3.34 1.345 7.725 1.345h7.62l7.203-14.926c3.863-8.202 7.307-14.387 7.412-13.715.209.672-1.044 6.589-2.819 13.177-1.67 6.59-3.131 12.774-3.131 13.716 0 1.479 1.774 1.748 7.62 1.479l7.516-.404 6.994-26.892c3.758-14.79 6.994-28.237 6.994-29.985.105-2.824-.313-2.958-7.203-2.958h-7.307l-5.846 11.698c-3.236 6.589-6.576 13.312-7.411 14.925-2.715 5.648-2.506 2.42.73-9.816 4.594-17.345 4.594-16.942-4.384-16.538l-7.62.403-6.786 13.85c-3.653 7.664-6.89 13.311-7.098 12.639-.105-.672 1.044-6.723 2.714-13.446s2.818-12.64 2.505-13.043c-1.253-1.479-14.928-.672-15.345.941m73.02 0c-1.462 5.11-14.094 56.743-14.094 57.819 0 .672 8.77.941 19.521.807l19.626-.404 2.296-8.067c1.253-4.438 2.297-8.472 2.297-9.144.104-.538-3.445-.941-7.725-.941-7.412 0-7.934.134-8.873 3.361-.835 2.69-1.67 3.362-4.698 3.362-4.175 0-4.175-.134-1.983-8.471l1.67-6.185 12.005-.404 11.9-.403 3.654-14.119c1.88-7.798 3.55-15.194 3.55-16.538 0-2.152-1.567-2.286-19.313-2.286-14.51 0-19.52.403-19.834 1.613m19.939 15.463c-1.149 4.572-1.775 5.11-5.116 5.513-4.175.404-4.384 0-2.714-6.32 1.044-3.63 1.566-4.168 5.115-4.168h4.072zM177.986 18.83c-4.28 3.227-8.351 6.723-9.082 7.665-1.148 1.613-22.548 86.19-22.444 88.879 0 1.882 14.301 1.21 15.345-.538.835-1.48 25.367-99.233 25.367-101.115 0-1.614-1.775-.672-9.186 5.11m171.02 86.207c-.662 2.151-1.434 5.378-1.765 7.395l-.551 3.765h7.828c7.938 0 7.938 0 9.37-4.437 3.75-10.892 3.97-10.354-5.401-10.354-8.049 0-8.38.135-9.482 3.63m-4.685 20.768c-1.543 4.975-14.883 56.743-14.883 57.819 0 1.748 15.214 1.344 16.206-.673 1.433-2.689 15.435-56.608 14.994-57.818-.772-1.748-15.766-1.076-16.317.672m-176.81 0c-1.544 5.11-14.884 56.743-14.884 57.819 0 .672 9.26.94 20.616.806l20.727-.403 2.426-8.068c1.323-4.437 2.425-8.47 2.425-9.143.11-.538-3.638-.941-8.158-.941-7.828 0-8.38.134-9.371 3.361-.882 2.69-1.764 3.362-4.962 3.362-2.094 0-3.858-.404-3.858-.807s1.984-8.605 4.52-18.152l4.52-17.346h4.19c3.748 0 4.079.27 3.528 3.362-.441 3.361-.441 3.361 7.386 3.361h7.938l1.654-4.975c.992-2.689 1.984-6.992 2.315-9.412l.662-4.437h-20.617c-15.435 0-20.727.403-21.057 1.613m50.484 0c-1.544 5.11-14.884 56.743-14.884 57.819 0 .672 9.261.94 20.727.806l20.617-.403 7.386-26.892c3.97-14.791 7.387-28.237 7.387-29.985l.11-2.958h-20.396c-15.324 0-20.616.403-20.947 1.613m18.522 25.548c-5.733 22.455-5.182 21.245-9.702 21.245-2.095 0-3.859-.404-3.859-.807s1.985-8.605 4.52-18.152l4.52-17.346h8.38zm31.962-25.548c-1.543 4.975-14.883 56.743-14.883 57.819 0 .538 3.638 1.075 8.158 1.075h8.158l7.497-14.79c4.19-8.068 7.718-14.388 7.938-14.119s-1.102 6.185-2.976 13.312c-1.875 7.126-3.418 13.58-3.418 14.253 0 .807 3.528 1.344 8.158 1.344h8.048l7.608-14.925c4.079-8.202 7.717-14.387 7.827-13.715.22.672-1.102 6.589-2.977 13.177-1.764 6.589-3.307 12.774-3.307 13.715 0 1.48 1.874 1.748 8.048 1.48l7.938-.404 7.387-26.892c3.969-14.791 7.386-28.237 7.386-29.985.11-2.824-.33-2.958-7.607-2.958h-7.717l-6.174 11.698c-3.418 6.588-6.946 13.312-7.828 14.925-2.866 5.647-2.646 2.42.772-9.816 4.85-17.345 4.85-16.942-4.63-16.538l-8.049.403-7.166 13.85c-3.859 7.664-7.276 13.311-7.497 12.639-.11-.672 1.103-6.723 2.867-13.446s2.976-12.64 2.646-13.043c-1.323-1.48-15.766-.672-16.207.941m101.443 0c-1.544 5.11-14.884 56.743-14.884 57.819 0 .672 9.261.94 20.617.806l20.727-.403 2.425-8.068c1.323-4.437 2.425-8.47 2.425-9.143.11-.538-3.638-.941-8.158-.941-7.828 0-8.379.134-9.371 3.361-.882 2.69-1.764 3.362-4.961 3.362-2.095 0-3.859-.404-3.859-.807s1.985-8.605 4.52-18.152l4.52-17.346h4.19c3.748 0 4.08.27 3.528 3.362-.441 3.361-.441 3.361 7.387 3.361h7.937l1.654-4.975c.992-2.689 1.985-6.992 2.315-9.412l.662-4.437h-20.617c-15.434 0-20.726.403-21.057 1.613m50.597-.672c-.882 1.748-8.49 32.27-8.49 33.884 0 .941 3.97 1.48 12.238 1.48 12.128 0 12.128 0 11.356 2.957-2.205 8.74-2.425 9.144-6.615 9.144-3.748 0-3.969-.27-3.307-3.362l.771-3.496-8.599.404-8.49.403-1.984 8.068c-1.102 4.437-1.984 8.47-1.984 9.143 0 .538 9.26.807 20.727.672l20.616-.403 4.63-16.673c2.536-9.278 4.41-17.211 4.08-17.884-.331-.537-5.733-1.075-12.128-1.075-12.458 0-12.458 0-10.253-7.933 1.103-3.63 1.654-4.169 5.402-4.169s4.08.27 3.528 3.362c-.44 3.361-.44 3.361 7.387 3.361h7.938l1.654-4.975c.992-2.689 1.984-6.992 2.315-9.412l.661-4.437h-20.506c-11.245 0-20.727.403-20.947.94" 
        transform="translate(-27.575 1.167)"
        style="display: inline; stroke-width: 1.21754;">
    </path>
    <path class="cls-1" 
        d="M5.26 90.789c.8 5.6-1 9.8-8.4 20.3-3.6 5-6.9 10.3-7.4 11.6-1.2 3.2-1.1 8.2.2 12.1 1.3 3.6 2.5 4 3.4 1.1.4-1.1 2.9-4.6 5.6-7.7s6.5-8.8 8.4-12.6c4.2-8.3 4.7-16.4 1.6-23.3-2.6-5.7-4-6.3-3.4-1.5m8.4-50c-4 7.7-6.5 18.1-5.6 24.6.3 2.7 2 9.7 3.8 15.5 2.5 8.3 3.1 12.3 3.2 19.5 0 12.4-2.5 19.3-11.4 31.2-9.7 12.9-12.5 19.1-12.5 27.3 0 3.6.7 8.8 1.7 11.5 3.2 9.5 15.6 20.8 28.6 26l5.6 2.3 7-3.6c13.6-7.1 24.7-21.2 27.6-35 1.9-9.2.7-25.3-2.5-33.7-4-10.3-11.6-23.5-21.1-36.5-16.5-22.5-22.9-37.3-20.8-48.6.5-3 .7-5.7.3-5.9-.4-.3-2.1 2.2-3.9 5.4m27.3-36.3c.5 2.1 0 4.8-1.4 8.3-2.5 6.4-2.5 9.2-.2 12.2l1.9 2.2 2.2-7.3c2.5-8.2 2.3-11.7-1-15.8l-2.1-2.7zm-10.4 12.5c-4.5 7.5-6.3 14-6.4 23.4 0 14.3 4.1 24.3 17.1 41.6 4.4 5.8 8.5 12 9.2 13.7 1.1 2.7 1.6 3 2.8 2 2.6-2.1 5.3-8.6 5.3-12.7 0-5.4-1-7.5-11-22.6-10.2-15.4-12.4-19.8-14.7-28.9-1.3-5.6-1.4-8-.6-13 .6-3.3.9-6.3.7-6.5s-1.2 1.2-2.4 3">
    </path>
</svg>
